<svg width="13" height="13" fill="none" xmlns="http://www.w3.org/2000/svg"><g clip-path="url(#clip0_95_5681)"><path d="M7.383 12.85H5.354a.615.615 0 01-.614-.614V7.66H3.556a.615.615 0 01-.614-.615v-1.96c0-.34.276-.615.614-.615H4.74v-.98c0-.973.306-1.801.884-2.394C6.204.499 7.016.184 7.97.184l1.547.002c.338 0 .613.276.613.615v1.82a.615.615 0 01-.614.614h-1.04c-.318 0-.399.064-.416.084-.029.032-.063.124-.063.376v.776H9.44a.617.617 0 01.62.615v1.96a.615.615 0 01-.615.614H7.997v4.576a.615.615 0 01-.614.614zm-1.9-.742h1.772v-4.78a.41.41 0 01.41-.41h1.65l.001-1.704H7.665a.41.41 0 01-.41-.41V3.695c0-.29.03-.62.248-.868.265-.3.682-.334.972-.334h.914V.928L7.97.926c-1.534 0-2.488.982-2.488 2.563v1.315a.41.41 0 01-.41.41H3.685v1.704h1.387a.41.41 0 01.41.41v4.78zM9.516.928z" fill="#fff"/></g><defs><clipPath id="clip0_95_5681"><path fill="#fff" transform="translate(.208 .208)" d="M0 0h12.642v12.667H0z"/></clipPath></defs></svg>