<svg width="18" height="16" fill="none" xmlns="http://www.w3.org/2000/svg"><path d="M9 16a1.06 1.06 0 01-.696-.261 208.07 208.07 0 00-2.047-1.76l-.003-.002c-1.813-1.544-3.38-2.877-4.469-4.19C.567 8.316 0 6.925 0 5.404c0-1.478.507-2.841 1.428-3.84A4.842 4.842 0 015.028 0a4.53 4.53 0 012.829.975A5.83 5.83 0 019 2.168c.338-.466.72-.866 1.143-1.193A4.53 4.53 0 0112.973 0c1.39 0 2.668.556 3.6 1.566.92.998 1.427 2.361 1.427 3.839 0 1.52-.567 2.913-1.785 4.381-1.09 1.314-2.655 2.647-4.469 4.19a199.03 199.03 0 00-2.05 1.763A1.06 1.06 0 019 16zM5.028 1.053A3.799 3.799 0 002.203 2.28c-.74.803-1.149 1.912-1.149 3.125 0 1.279.476 2.423 1.543 3.71 1.031 1.242 2.565 2.548 4.341 4.06l.003.003c.621.529 1.325 1.128 2.057 1.768a245.81 245.81 0 012.064-1.77c1.776-1.513 3.31-2.819 4.341-4.062 1.067-1.286 1.543-2.43 1.543-3.71 0-1.212-.408-2.321-1.149-3.124a3.799 3.799 0 00-2.825-1.227c-.8 0-1.535.255-2.184.756-.578.446-.98 1.011-1.216 1.406A.66.66 0 019 3.54a.66.66 0 01-.572-.325c-.236-.395-.638-.96-1.216-1.406a3.499 3.499 0 00-2.184-.756z" fill="#956D84"/></svg>