<svg width="15" height="16" fill="none" xmlns="http://www.w3.org/2000/svg"><path d="M7.644.779C4.65.779 1.806.517.72 3.249.272 4.377.337 5.843.337 7.941c0 1.84-.06 3.571.383 4.69 1.084 2.734 3.95 2.472 6.922 2.472 2.868 0 5.824.293 6.923-2.471.45-1.14.384-2.583.384-4.691 0-2.798.157-4.605-1.227-5.96C12.32.605 10.424.778 7.64.778h.003zm-.186 1.156c5.542 0 6.73-.388 6.334 8.923-.396 3.103-3.004 3.267-6.148 3.267-5.507 0-6.281-.552-6.401-6.184-.137-6.394 1.861-6.006 6.215-6.006zm4.086 1.323a.868.868 0 00-.876.86c0 .474.393.858.877.858a.868.868 0 00.876-.859.868.868 0 00-.877-.859zm-3.9 1.005c-2.072 0-3.752 1.647-3.752 3.678 0 2.03 1.68 3.677 3.752 3.677s3.751-1.646 3.751-3.677-1.679-3.678-3.751-3.678zm0 1.29c3.22 0 3.224 4.775 0 4.775-3.22 0-3.224-4.775 0-4.775z" fill="#fff"/></svg>