<svg width="27" height="15" fill="none" xmlns="http://www.w3.org/2000/svg"><g opacity=".4" clip-path="url(#clip0_9458_1201)"><path d="M6.25 3.75l-.881.881L8.23 7.5l-2.86 2.869.881.881L10 7.5 6.25 3.75z" fill="#956D84"/></g><g opacity=".7" clip-path="url(#clip1_9458_1201)"><path d="M12.25 3.75l-.881.881L14.23 7.5l-2.862 2.869.881.881L16 7.5l-3.75-3.75z" fill="#956D84"/></g><g opacity=".9" clip-path="url(#clip2_9458_1201)"><path d="M18.25 3.75l-.881.881L20.23 7.5l-2.862 2.869.881.881L22 7.5l-3.75-3.75z" fill="#956D84"/></g><defs><clipPath id="clip0_9458_1201"><path fill="#fff" d="M0 0h15v15H0z"/></clipPath><clipPath id="clip1_9458_1201"><path fill="#fff" transform="translate(6)" d="M0 0h15v15H0z"/></clipPath><clipPath id="clip2_9458_1201"><path fill="#fff" transform="translate(12)" d="M0 0h15v15H0z"/></clipPath></defs></svg>