<svg width="17" height="16" fill="none" xmlns="http://www.w3.org/2000/svg"><path d="M1.323 1.2l-.127.161a3.636 3.636 0 00-.516.912 3.805 3.805 0 00-.232.93v.003c-.305 2.523.822 4.883 4.16 8.22 0 0 0 0 0 0M1.322 1.2l3.002 10.509.282-.283M1.323 1.2l.52-.524s0 0 0 0c.366-.365.93-.36 1.255-.034 0 0 0 0 0 0L5.575 3.12c.326.327.331.89-.033 1.255h0l-.412.412h0l-.837.837-.217.216.152.265.112.2.02.036h0l.005.01c.44.792 1.061 1.91 2.237 3.085 1.176 1.177 2.296 1.798 3.089 2.237.086.049.168.095.248.138l.263.146.213-.213 1.247-1.247h0c.364-.364.928-.36 1.255-.035 0 0 0 0 0 0l2.476 2.477s0 0 0 0c.327.327.332.89-.03 1.255l-.56.548-.128.1a3.617 3.617 0 01-.91.515 3.8 3.8 0 01-.93.234c-.122.013-3.718.345-8.228-4.164M1.323 1.2l3.284 10.226m.103-5.28l-.02-.035c-.04-.071-.077-.14-.115-.205l.135.24z" stroke="#956D84" stroke-width=".8"/></svg>