<svg width="34" height="51" fill="none" xmlns="http://www.w3.org/2000/svg"><path d="M17 .875C7.626.875 0 8.401 0 17.652c0 3.717 2.218 9.37 6.98 17.791a190.587 190.587 0 006.62 10.804l2.337 3.497a1.28 1.28 0 002.126 0l2.338-3.497c.135-.202 3.346-5.013 6.62-10.803C31.782 27.023 34 21.37 34 17.651 34 8.402 26.374.875 17 .875zm7.796 33.343a185.718 185.718 0 01-6.521 10.644L17 46.77l-1.274-1.906c-.134-.2-3.318-4.979-6.522-10.645-4.417-7.81-6.657-13.384-6.657-16.566C2.547 9.788 9.031 3.389 17 3.389c7.97 0 14.453 6.399 14.453 14.263 0 3.182-2.24 8.756-6.657 16.566z" fill="#956D84"/><path d="M17.004 8.245c-5.198 0-9.426 4.173-9.426 9.302s4.228 9.302 9.426 9.302c5.197 0 9.425-4.173 9.425-9.302s-4.228-9.302-9.425-9.302zm0 16.09c-3.793 0-6.878-3.045-6.878-6.788 0-3.743 3.085-6.788 6.878-6.788 3.792 0 6.878 3.045 6.878 6.788 0 3.743-3.086 6.788-6.878 6.788z" fill="#956D84"/></svg>