<svg width="18" height="18" fill="none" xmlns="http://www.w3.org/2000/svg"><g clip-path="url(#clip0_40_3798)" fill="#fff"><path d="M17.51 10.803c.127-.595.19-1.2.19-1.803a8.644 8.644 0 00-2.548-6.152A8.643 8.643 0 009 .3a8.72 8.72 0 00-1.803.19A5.046 5.046 0 005.033 0 5.038 5.038 0 000 5.032c0 .748.169 1.492.49 2.165A8.72 8.72 0 00.3 9c0 2.324.905 4.509 2.548 6.152A8.643 8.643 0 009 17.7c.602 0 1.207-.064 1.803-.19.673.321 1.417.49 2.165.49A5.038 5.038 0 0018 12.968a5.05 5.05 0 00-.49-2.165zm-4.542 6.142a3.93 3.93 0 01-1.85-.457.528.528 0 00-.367-.046 7.687 7.687 0 01-1.75.203c-4.217 0-7.646-3.43-7.646-7.645 0-.586.068-1.175.204-1.75a.528.528 0 00-.047-.367 3.93 3.93 0 01-.457-1.85 3.982 3.982 0 013.978-3.978 3.93 3.93 0 011.85.456c.112.06.242.076.366.047A7.691 7.691 0 019 1.354c4.216 0 7.645 3.43 7.645 7.646a7.67 7.67 0 01-.203 1.75.527.527 0 00.046.367c.304.576.457 1.198.457 1.85a3.982 3.982 0 01-3.977 3.978z"/><path d="M9 4.923c1.556 0 2.87.813 2.87 1.775a.527.527 0 101.055 0c0-.796-.436-1.529-1.227-2.065-.728-.493-1.686-.765-2.698-.765s-1.97.272-2.698.765c-.79.536-1.227 1.27-1.227 2.065 0 .795.436 1.528 1.227 2.064.728.494 1.686.765 2.698.765 1.556 0 2.87.813 2.87 1.775S10.556 13.077 9 13.077s-2.87-.813-2.87-1.775a.527.527 0 10-1.055 0c0 .795.436 1.528 1.227 2.064.728.494 1.686.766 2.698.766s1.97-.272 2.698-.766c.79-.536 1.227-1.269 1.227-2.064 0-.795-.436-1.528-1.227-2.064-.728-.494-1.686-.765-2.698-.765-1.556 0-2.87-.813-2.87-1.775S7.444 4.923 9 4.923z"/></g><defs><clipPath id="clip0_40_3798"><path fill="#fff" d="M0 0h18v18H0z"/></clipPath></defs></svg>