<svg width="40" height="40" fill="none" xmlns="http://www.w3.org/2000/svg"><path d="M39.284 31.177l-8.002-7.896a2.476 2.476 0 00-3.464 0l-2.08 2.053a2.397 2.397 0 00-.62 2.38l-.785.775v.001c-.558.55-4.03-.294-8.227-4.436-4.197-4.141-5.053-7.567-4.496-8.118l.786-.776c.222.063.45.095.68.095.627 0 1.254-.235 1.732-.707l2.08-2.053a2.397 2.397 0 000-3.418l-8-7.897A2.45 2.45 0 007.154.472a2.45 2.45 0 00-1.732.708l-2.08 2.054a2.397 2.397 0 00-.62 2.38s-.666.663-.699.705C-.189 8.747-.605 12.569.863 17.14c1.437 4.475 4.535 9.216 8.722 13.348 4.188 4.133 8.992 7.19 13.527 8.608 1.821.57 3.525.852 5.073.852 2.537 0 4.652-.759 6.169-2.255l.436-.431c.219.062.447.095.68.095a2.45 2.45 0 001.733-.708l2.08-2.053a2.398 2.398 0 000-3.419zM7.155 2.89l8.002 7.896-2.08 2.054-.03-.03-3.973-3.92-4-3.948 2.08-2.053zm25.467 33.093c-1.762 1.74-4.877 2.027-8.77.809-4.168-1.303-8.62-4.149-12.534-8.013-3.916-3.864-6.8-8.256-8.12-12.37-1.234-3.841-.943-6.915.82-8.654l.22-.219 6.21 6.128-.57.562v.002c-2.36 2.331.475 7.567 4.496 11.535 3.01 2.97 6.739 5.285 9.415 5.285.9 0 1.68-.262 2.275-.849l.57-.562 6.21 6.128-.222.218zm2.85-1.043l-8.002-7.896 2.08-2.053 8.002 7.896-2.08 2.053z" fill="#956D84"/></svg>