<svg width="14" height="14" fill="none" xmlns="http://www.w3.org/2000/svg"><g clip-path="url(#clip0_147_1338)"><path d="M13.784 1.39a.909.909 0 00-.722-.324c-.16 0-.329.034-.503.1L.71 5.69c-.63.24-.714.6-.709.794.006.193.11.548.752.752a.458.458 0 00.012.004l2.458.703 1.33 3.802c.18.518.587.84 1.061.84.299 0 .593-.126.85-.362l1.52-1.4 2.206 1.775v.001l.021.017.006.005c.245.19.513.29.774.29.511 0 .918-.378 1.036-.963l1.942-9.588c.078-.384.013-.729-.184-.97zm-9.74 6.42l4.743-2.423-2.953 3.137a.41.41 0 00-.1.183l-.57 2.307-1.12-3.205zm1.863 3.81a.776.776 0 01-.059.048l.528-2.14.961.774-1.43 1.317zm7.257-9.422l-1.942 9.588c-.018.091-.078.305-.232.305a.478.478 0 01-.268-.117l-2.5-2.012-1.487-1.198 4.27-4.538a.41.41 0 00-.485-.646L3.496 7.168l-2.491-.713 11.847-4.522c.1-.038.17-.046.21-.046.026 0 .07.003.087.023.022.027.05.117.015.288z" fill="#fff"/></g><defs><clipPath id="clip0_147_1338"><path fill="#fff" d="M0 0h14v14H0z"/></clipPath></defs></svg>