<svg width="15" height="15" fill="none" xmlns="http://www.w3.org/2000/svg"><path d="M8.928 0H6.071A5.433 5.433 0 00.644 5.426V8c0 2.228 1.37 4.23 3.428 5.046v1.668a.285.285 0 00.477.212l1.657-1.5h2.722A5.433 5.433 0 0014.355 8V5.426A5.433 5.433 0 008.928 0zm4.856 8a4.86 4.86 0 01-4.856 4.854H6.096a.288.288 0 00-.192.074l-1.26 1.142v-1.222a.285.285 0 00-.191-.27A4.865 4.865 0 011.215 8V5.426A4.86 4.86 0 016.071.571h2.857a4.86 4.86 0 014.856 4.855V8z" fill="#fff"/><path d="M11.275 8.71L9.519 7.57a.855.855 0 00-1.185.251l-.083.127c-.76-.25-1.597-.572-2.099-2.024l.208-.18a.858.858 0 00.084-1.21L5.07 2.955a.286.286 0 00-.403-.028l-.862.75c-.757.658-.403 1.63-.287 1.95a.283.283 0 00.019.041c.03.054.746 1.332 1.903 2.51 1.16 1.183 3.257 2.275 3.322 2.307a1.43 1.43 0 001.976-.42l.621-.958a.286.286 0 00-.084-.396zm-1.017 1.043a.868.868 0 01-1.21.238c-.02-.01-2.103-1.096-3.2-2.214a12.752 12.752 0 01-1.8-2.368c-.227-.635-.187-1.025.132-1.302l.647-.562L6.013 4.91a.283.283 0 01-.028.404l-.35.304a.285.285 0 00-.086.3c.598 1.942 1.76 2.323 2.608 2.601l.124.041a.285.285 0 00.33-.115l.202-.312a.282.282 0 01.395-.083l1.517.985-.467.719zM8.152 4.641a.285.285 0 10-.157.55c.426.12.765.46.885.886a.286.286 0 00.55-.155 1.868 1.868 0 00-1.278-1.281z" fill="#fff"/><path d="M10.326 6.347a.286.286 0 00.275-.363 3.628 3.628 0 00-2.482-2.488.285.285 0 10-.156.55 3.052 3.052 0 012.088 2.093c.036.126.15.208.275.208z" fill="#fff"/><path d="M7.996 2.166a.286.286 0 10-.157.55 5.171 5.171 0 013.539 3.546.286.286 0 00.55-.155 5.747 5.747 0 00-3.932-3.941z" fill="#fff"/></svg>