<svg width="100" height="100" fill="none" xmlns="http://www.w3.org/2000/svg"><g opacity=".8" clip-path="url(#clip0_40_3328)"><path d="M98.457 20.177h-8.142c.236-.331.45-.68.638-1.046a8.48 8.48 0 00.4-6.799L88.886 5.7a8.47 8.47 0 00-4.74-4.885 8.475 8.475 0 00-6.81.196L57.81 10.284a5.862 5.862 0 00-3.42-1.097h-8.78a5.865 5.865 0 00-3.42 1.098L22.664 1.01a8.479 8.479 0 00-6.81-.195 8.47 8.47 0 00-4.74 4.885l-2.467 6.633a8.475 8.475 0 00.4 6.798c.188.366.403.715.64 1.046H1.542c-.852 0-1.543.69-1.543 1.544v11.11a1.544 1.544 0 003.087 0v-9.568h10.72c.172.06.346.116.522.165l12.957 3.567a103.097 103.097 0 00-7.594 13.862H3.087v-1.852a1.543 1.543 0 00-3.087 0V42.4c0 .852.691 1.544 1.543 1.544h5.504v54.64c0 .852.692 1.543 1.544 1.543H91.41c.852 0 1.543-.69 1.543-1.544v-8.961a1.544 1.544 0 00-3.087 0v7.419H59.26V44.893a82.647 82.647 0 018.693 26.586 1.543 1.543 0 002.76.705 86.069 86.069 0 006.144-9.384 87.964 87.964 0 019.02 7.056 1.543 1.543 0 002.554-1.376 103.518 103.518 0 00-6.785-24.536h8.22v39.504a1.543 1.543 0 103.087 0V43.944h5.505c.852 0 1.543-.692 1.543-1.544V21.72c0-.852-.69-1.543-1.543-1.543zM78.66 3.798a5.313 5.313 0 014.325-.123 5.304 5.304 0 013.008 3.101l2.466 6.631a5.31 5.31 0 01-.254 4.317 5.305 5.305 0 01-3.352 2.728l-24.568 6.763v-7.417c5.523-3.381 19.29-10.355 22.716-5.519a1.543 1.543 0 102.518-1.784c-2.644-3.733-8.217-3.914-16.564-.538-3.439 1.39-6.613 3.086-8.67 4.264v-1.14c0-.826-.171-1.613-.48-2.328L78.66 3.798zm-33.05 8.475h8.78a2.812 2.812 0 012.809 2.809v12.757a2.811 2.811 0 01-2.809 2.808h-8.78a2.811 2.811 0 01-2.808-2.808V15.082a2.811 2.811 0 012.808-2.809zm-2.594 28.583a82.319 82.319 0 014.812-7.122h4.343a81.979 81.979 0 014.812 7.122H43.016zm-31.22-23.132a5.311 5.311 0 01-.256-4.316l2.468-6.633a5.302 5.302 0 013.008-3.1 5.311 5.311 0 014.324.123l18.855 8.957c-.308.714-.48 1.5-.48 2.327v1.227c-2.05-1.18-5.296-2.926-8.822-4.352-8.346-3.376-13.92-3.195-16.564.538a1.543 1.543 0 002.518 1.784c3.459-4.882 17.452 2.27 22.868 5.613v7.323l-24.567-6.762a5.308 5.308 0 01-3.353-2.729zm28.612 12.884a5.92 5.92 0 003.726 2.938 85.866 85.866 0 00-14.518 33.806 84.46 84.46 0 01-4.575-7.5 1.54 1.54 0 00-2.2-.559 89.42 89.42 0 00-7.519 5.49c2.503-13.14 7.675-25.809 15.092-36.927l9.994 2.752zM10.134 43.944h8.222a103.542 103.542 0 00-6.787 24.536 1.543 1.543 0 002.555 1.376 87.885 87.885 0 019.02-7.056 86.028 86.028 0 006.145 9.384 1.543 1.543 0 002.758-.705 82.688 82.688 0 018.693-26.587v52.149H10.134V43.944zM43.827 97.04V43.944h12.346V97.04H43.827zM77.16 59.293a1.542 1.542 0 00-2.2.559 84.358 84.358 0 01-4.575 7.5 85.843 85.843 0 00-14.52-33.805 5.918 5.918 0 003.728-2.94l9.996-2.751c7.415 11.12 12.587 23.789 15.09 36.927a89.545 89.545 0 00-7.519-5.49zm19.754-18.436H80.308a103.192 103.192 0 00-7.593-13.862l12.956-3.567a7.69 7.69 0 00.521-.165h10.72v17.594z" fill="#fff"/></g><defs><clipPath id="clip0_40_3328"><path fill="#fff" d="M0 0h100v100H0z"/></clipPath></defs></svg>