<svg width="100" height="100" fill="none" xmlns="http://www.w3.org/2000/svg"><g opacity=".8" clip-path="url(#clip0_40_3336)"><path d="M28.186 31.107h1.95a17.48 17.48 0 01-3.34-10.303c0-2.16.394-4.241 1.119-6.168a17.535 17.535 0 013.217-5.393 1.457 1.457 0 012.06-.138c.608.532.67 1.45.138 2.06a14.575 14.575 0 00-3.605 9.639c0 2.081.427 4.052 1.196 5.83a14.716 14.716 0 003.029 4.473h20.878a14.717 14.717 0 003.028-4.474 14.634 14.634 0 001.196-5.83 14.61 14.61 0 00-4.296-10.37 14.62 14.62 0 00-10.37-4.295c-1.119 0-2.198.121-3.223.348a14.674 14.674 0 00-3.045 1.052c-.73.349-1.6.034-1.943-.697a1.455 1.455 0 01.698-1.944 17.451 17.451 0 013.665-1.256 17.559 17.559 0 0116.294 4.722 17.599 17.599 0 013.687 5.41c.725-1.662 1.7-3.19 2.874-4.53a1.457 1.457 0 012.06-.138c.608.532.67 1.45.137 2.06a14.698 14.698 0 00-2.685 4.49 14.62 14.62 0 00-.924 5.149c0 2.082.431 4.052 1.201 5.83a14.616 14.616 0 003.028 4.473h20.873a14.633 14.633 0 003.034-4.473 14.634 14.634 0 001.196-5.83 14.63 14.63 0 00-4.296-10.37 14.62 14.62 0 00-10.37-4.296c-1.124 0-2.198.121-3.222.348a14.677 14.677 0 00-3.046 1.052 1.462 1.462 0 11-1.25-2.64 17.67 17.67 0 013.665-1.257 17.536 17.536 0 0116.294 4.722 17.546 17.546 0 015.154 12.44 17.49 17.49 0 01-1.45 6.988 17.473 17.473 0 01-1.889 3.316h1.944c1.97 0 3.759.809 5.054 2.104A7.124 7.124 0 01100 38.26v38.107a7.13 7.13 0 01-2.098 5.055 7.13 7.13 0 01-5.055 2.099h-10.37l-3.488 12.208a1.459 1.459 0 01-1.406 1.062H43.456a1.472 1.472 0 01-1.428-1.129L38.562 83.52H28.186a7.128 7.128 0 01-5.05-2.098 7.136 7.136 0 01-2.103-5.055V67.88H16v2.895c0 .71-.504 1.307-1.179 1.44L1.871 75.97A1.467 1.467 0 010 74.569V60.632a1.47 1.47 0 011.467-1.467c.808 0 1.462.658 1.462 1.467v11.992l10.143-2.946v-24.73l-10.143-2.94v11.987c0 .814-.654 1.467-1.462 1.467A1.466 1.466 0 010 53.995V40.059a1.464 1.464 0 011.993-1.362l12.95 3.754a1.463 1.463 0 011.057 1.4v2.897h5.033V38.26c0-1.966.808-3.754 2.104-5.05a7.11 7.11 0 015.05-2.103zm48.461-17.584a7.26 7.26 0 015.15 2.132 7.26 7.26 0 012.13 5.148 7.26 7.26 0 01-2.13 5.15 7.26 7.26 0 01-5.15 2.13 7.26 7.26 0 01-5.149-2.13 7.26 7.26 0 01-2.131-5.15 7.26 7.26 0 012.131-5.149 7.259 7.259 0 015.15-2.131zm3.078 4.202a4.344 4.344 0 00-3.078-1.273 4.353 4.353 0 00-3.078 1.273 4.353 4.353 0 006.156 6.157 4.353 4.353 0 000-6.156zm-35.34-4.202a7.25 7.25 0 015.15 2.132 7.26 7.26 0 012.131 5.148 7.26 7.26 0 01-2.131 5.15 7.25 7.25 0 01-5.15 2.13 7.247 7.247 0 01-5.142-2.13 7.264 7.264 0 01-2.138-5.15c0-2.01.82-3.83 2.138-5.149a7.246 7.246 0 015.143-2.131zm3.08 4.202a4.334 4.334 0 00-3.079-1.273 4.33 4.33 0 00-3.073 1.273 4.353 4.353 0 000 6.157 4.33 4.33 0 003.073 1.273 4.343 4.343 0 003.078-1.273 4.355 4.355 0 000-6.156zM50.06 61.57c.576.57.576 1.5 0 2.07-.57.57-1.5.57-2.07 0l-4.197-4.197a10.792 10.792 0 01-3.162-7.657c0-2.773 1.052-5.552 3.162-7.657a10.79 10.79 0 017.657-3.161c2.773 0 5.547 1.052 7.657 3.161l1.412 1.412 1.411-1.412a10.783 10.783 0 017.657-3.161 10.793 10.793 0 0110.819 10.818c0 2.774-1.058 5.554-3.162 7.657l-15.69 15.685c-.57.576-1.5.576-2.07 0l-6.8-6.798a1.457 1.457 0 010-2.071c.57-.57 1.5-.57 2.071 0l5.764 5.763 14.655-14.655a7.866 7.866 0 002.303-5.58 7.88 7.88 0 00-2.303-5.587 7.888 7.888 0 00-5.587-2.303c-2.026 0-4.052.77-5.586 2.303l-2.447 2.447c-.57.57-1.5.57-2.071 0L57.037 46.2a7.885 7.885 0 00-5.586-2.309 7.88 7.88 0 00-5.587 2.31 7.88 7.88 0 00-2.303 5.585c0 2.027.77 4.048 2.303 5.587l4.197 4.197zm-29.027 3.38V49.68H16v15.27h5.033zM60.52 27.824a17.454 17.454 0 01-1.876 3.283h3.748a17.74 17.74 0 01-1.872-3.283zM79.432 83.52h-37.83l2.956 10.342h31.917l2.957-10.342zm13.415-49.485h-64.66a4.193 4.193 0 00-2.98 1.245 4.193 4.193 0 00-1.245 2.98v38.107c0 1.162.476 2.214 1.246 2.984a4.212 4.212 0 002.978 1.24h64.66c1.163 0 2.22-.476 2.985-1.24a4.224 4.224 0 001.24-2.984V38.26a4.212 4.212 0 00-1.24-2.978 4.195 4.195 0 00-2.984-1.246z" fill="#fff"/></g><defs><clipPath id="clip0_40_3336"><path fill="#fff" d="M0 0h100v100H0z"/></clipPath></defs></svg>