<svg width="100" height="100" fill="none" xmlns="http://www.w3.org/2000/svg"><g opacity=".8" clip-path="url(#clip0_40_3343)" fill="#fff"><path d="M99.339 34.027a3.396 3.396 0 00-2.236-1.358l-29.05-4.487V3.421A3.422 3.422 0 0064.634.003H3.418A3.422 3.422 0 000 3.42v61.255a3.422 3.422 0 003.418 3.418h22.813L23.355 86.72c-.284 1.842 1.014 3.615 2.857 3.9l60.499 9.342c1.801.278 3.619-1.041 3.9-2.856l1.564-10.13c.289-1.872-2.607-2.32-2.896-.447-.197 1.275-1.107 10.69-2.121 10.538l-60.5-9.343c-.29-.073-.425-.259-.407-.557l2.945-19.073h3.278L30.09 83.522c-.123.8.425 1.548 1.224 1.671l52.166 8.056c.737.114 1.556-.474 1.672-1.224l8.07-52.259A1.465 1.465 0 0092 38.095l-23.947-3.698v-3.25l28.604 4.417c.29.073.426.259.408.557L90.42 79.142c-.281 1.82 2.602 2.35 2.895.447l6.644-43.02a3.395 3.395 0 00-.62-2.542zM2.929 64.676V3.421c0-.27.22-.489.489-.489h61.216c.27 0 .489.22.489.489v61.255c0 .27-.22.488-.489.488H3.418a.489.489 0 01-.488-.488zm87.175-23.91L82.481 90.13l-49.27-7.609 2.227-14.427h29.196a3.422 3.422 0 003.418-3.418V37.361l22.052 3.406z"/><path d="M60.418 6.144H7.634c-.809 0-1.465.655-1.465 1.464v7.323c0 1.894 2.93 1.894 2.93 0V9.073h49.854v49.949H9.1v-36.3c0-1.895-2.93-1.895-2.93 0v37.765c0 .809.656 1.465 1.465 1.465h52.784c.81 0 1.465-.656 1.465-1.465V7.608c0-.809-.656-1.464-1.465-1.464z"/><path d="M34.026 48.62c.191 0 .382-.038.562-.113.164-.068 4.071-1.709 8.043-4.81 5.416-4.227 8.314-9.153 8.383-14.246.072-5.328-3.987-10.518-9.57-10.518-2.922 0-5.629 1.455-7.418 3.86-1.79-2.405-4.496-3.86-7.418-3.86-5.277 0-9.57 4.71-9.57 10.498 0 12.263 15.765 18.808 16.436 19.08.177.073.365.109.552.109zM19.967 29.43c0-4.172 2.98-7.567 6.641-7.567 2.604 0 4.982 1.751 6.056 4.461.48 1.209 2.244 1.209 2.724 0 1.074-2.71 3.451-4.461 6.055-4.461 3.964 0 6.692 3.824 6.642 7.548-.123 9.067-11.408 14.894-14.067 16.14-2.677-1.226-14.051-6.975-14.051-16.12z"/></g><defs><clipPath id="clip0_40_3343"><path fill="#fff" d="M0 0h100v100H0z"/></clipPath></defs></svg>